<svg width="14" height="14" viewBox="0 0 14 14" fill="none" xmlns="http://www.w3.org/2000/svg">
<g clip-path="url(#clip0_0_639)">
<path d="M11.5108 4.80286C11.3656 4.75287 11.2151 4.70557 11.0601 4.66084C11.0856 4.5569 11.109 4.4543 11.1298 4.35345C11.4709 2.69745 11.2479 1.36337 10.4862 0.924136C9.75583 0.502967 8.5614 0.942104 7.35508 1.99193C7.23908 2.09288 7.12276 2.19976 7.00648 2.31177C6.929 2.23766 6.85165 2.16604 6.7745 2.09754C5.51024 0.974998 4.24302 0.501945 3.4821 0.942452C2.75244 1.36484 2.53636 2.61901 2.84345 4.18841C2.8731 4.33999 2.90777 4.4948 2.94697 4.65219C2.76762 4.7031 2.59448 4.75738 2.42881 4.81512C0.946604 5.33188 0 6.14177 0 6.98184C0 7.84948 1.01618 8.71973 2.56001 9.2474C2.68185 9.28904 2.80826 9.32842 2.93854 9.3658C2.89626 9.53603 2.85947 9.70284 2.8286 9.86554C2.53579 11.4077 2.76445 12.6322 3.49216 13.052C4.24382 13.4854 5.50531 13.0399 6.73368 11.9661C6.83077 11.8813 6.92821 11.7912 7.02582 11.6969C7.15233 11.8187 7.27865 11.934 7.4043 12.0422C8.59412 13.0661 9.76926 13.4795 10.4963 13.0586C11.2472 12.6239 11.4912 11.3085 11.1744 9.70802C11.1502 9.58579 11.1221 9.46092 11.0904 9.33383C11.179 9.30763 11.266 9.2806 11.3508 9.25249C12.9558 8.72072 14 7.86106 14 6.98184C14 6.13873 13.0229 5.32338 11.5108 4.80286ZM11.1627 8.68479C11.0862 8.71013 11.0076 8.73463 10.9276 8.75838C10.7504 8.19746 10.5113 7.601 10.2186 6.98476C10.4979 6.38319 10.7278 5.79436 10.9 5.23708C11.0432 5.27852 11.1822 5.32223 11.3161 5.36836C12.6117 5.81435 13.4019 6.47375 13.4019 6.98184C13.4019 7.52305 12.5485 8.22562 11.1627 8.68479ZM10.5877 9.82417C10.7278 10.5319 10.7478 11.1717 10.655 11.6719C10.5716 12.1214 10.4039 12.421 10.1966 12.541C9.75541 12.7964 8.81189 12.4645 7.79434 11.5888C7.67769 11.4884 7.5602 11.3813 7.44233 11.2678C7.83681 10.8364 8.23106 10.3348 8.61585 9.7778C9.29265 9.71774 9.93207 9.61956 10.5119 9.48551C10.5405 9.60072 10.5659 9.7137 10.5877 9.82417ZM4.77292 12.4969C4.34185 12.6491 3.99853 12.6535 3.791 12.5338C3.3494 12.2791 3.16581 11.2959 3.41623 9.97708C3.44491 9.82604 3.47905 9.67089 3.5184 9.5123C4.09191 9.63912 4.72664 9.73037 5.40506 9.78537C5.79244 10.3304 6.19808 10.8315 6.60686 11.2701C6.51755 11.3564 6.42859 11.4385 6.34012 11.5158C5.79695 11.9906 5.25262 12.3275 4.77292 12.4969ZM2.75344 8.68147C2.07079 8.44815 1.50703 8.1449 1.12059 7.81399C0.773361 7.51662 0.598051 7.2214 0.598051 6.98184C0.598051 6.47206 1.35808 5.82183 2.62568 5.37987C2.77948 5.32625 2.94049 5.27571 3.10758 5.22824C3.28276 5.7981 3.51257 6.39391 3.7899 6.9964C3.50898 7.60783 3.27591 8.21313 3.099 8.78968C2.97989 8.75544 2.86448 8.7194 2.75344 8.68147ZM3.43039 4.07355C3.16728 2.72893 3.34202 1.71459 3.78173 1.46006C4.2501 1.18891 5.28579 1.57552 6.37738 2.54477C6.44715 2.60672 6.5172 2.67156 6.58745 2.73865C6.18069 3.17542 5.77875 3.67267 5.39481 4.21452C4.73638 4.27555 4.10611 4.37359 3.52663 4.50486C3.49019 4.35831 3.45792 4.21432 3.43039 4.07355ZM9.46935 5.56473C9.33082 5.32545 9.18861 5.09183 9.04362 4.86458C9.49031 4.92105 9.91828 4.99601 10.3202 5.08774C10.1995 5.47444 10.0491 5.87877 9.87211 6.29326C9.74512 6.05216 9.6108 5.80907 9.46935 5.56473ZM7.00668 3.16607C7.28254 3.46494 7.5588 3.79861 7.83053 4.16065C7.55671 4.14771 7.2795 4.14099 7 4.14099C6.72314 4.14099 6.44798 4.14756 6.17585 4.16027C6.44785 3.8016 6.7265 3.46837 7.00668 3.16607ZM4.52823 5.56887C4.38985 5.80882 4.25802 6.05059 4.13303 6.29281C3.95886 5.87977 3.80987 5.4736 3.68816 5.08141C4.0876 4.99202 4.51355 4.91893 4.9574 4.86353C4.81037 5.09287 4.66698 5.32821 4.52823 5.56882V5.56887ZM4.97018 9.14281C4.51161 9.09165 4.07925 9.02233 3.67991 8.93541C3.80356 8.53622 3.95585 8.12138 4.1337 7.69943C4.25902 7.94148 4.39137 8.18335 4.5306 8.42383H4.53062C4.67244 8.66882 4.81937 8.90879 4.97018 9.14281ZM7.02323 10.8398C6.73976 10.5339 6.45702 10.1956 6.18089 9.83172C6.44895 9.84224 6.72224 9.84762 7 9.84762C7.28536 9.84762 7.56745 9.84119 7.84511 9.82883C7.57248 10.1993 7.29722 10.5381 7.02323 10.8398ZM9.87781 7.67793C10.0649 8.10443 10.2227 8.5171 10.3479 8.90949C9.94201 9.00209 9.50374 9.07668 9.04198 9.1321C9.18731 8.90179 9.33078 8.66415 9.47175 8.41972C9.61436 8.17241 9.74978 7.92473 9.87781 7.67793ZM8.95369 8.12093C8.73484 8.50038 8.51017 8.86262 8.28207 9.20454C7.86664 9.23425 7.43744 9.24955 7 9.24955C6.56433 9.24955 6.14054 9.23601 5.73245 9.20953C5.49517 8.86311 5.26561 8.49981 5.04816 8.12419H5.04821C4.83133 7.7496 4.63172 7.37184 4.45085 6.9962C4.63167 6.61968 4.83076 6.2415 5.04639 5.86758L5.04634 5.86765C5.26254 5.49274 5.49008 5.1312 5.72518 4.78696C6.14154 4.75548 6.56849 4.73906 6.99998 4.73906H7C7.43343 4.73906 7.86093 4.75561 8.27717 4.78735C8.50867 5.12908 8.73467 5.48945 8.95172 5.86441C9.17124 6.24359 9.37289 6.61926 9.55525 6.9877C9.37344 7.36247 9.17223 7.74192 8.95369 8.12093ZM10.1874 1.44227C10.6563 1.71262 10.8386 2.80297 10.544 4.23274C10.5252 4.32397 10.5041 4.4169 10.4811 4.51107C9.90027 4.37705 9.26955 4.27732 8.6092 4.21537C8.22451 3.66756 7.82587 3.16954 7.42573 2.73837C7.53331 2.63488 7.64074 2.5362 7.74772 2.44307C8.78129 1.54359 9.74731 1.18846 10.1874 1.44227ZM7 5.73169C7.69043 5.73169 8.25015 6.29139 8.25015 6.98184C8.25015 7.67227 7.69043 8.232 7 8.232C6.30957 8.232 5.74985 7.67227 5.74985 6.98184C5.74985 6.29139 6.30957 5.73169 7 5.73169Z" fill="#00D8FF"/>
</g>
<defs>
<clipPath id="clip0_0_639">
<rect width="14" height="14" fill="white"/>
</clipPath>
</defs>
</svg>
