<svg width="40" height="40" viewBox="0 0 40 40" fill="none" xmlns="http://www.w3.org/2000/svg">
<path d="M16.8 40V4H20.8V40H16.8Z" fill="white"/>
<path d="M0 32V0H4V32H0Z" fill="white"/>
<path d="M33.6 4L4 4L4 0L33.6 0V4Z" fill="white"/>
<path d="M33.6 17.6L4 17.6L4 13.6L33.6 13.6V17.6Z" fill="white"/>
<path d="M36 32V20H40V32H36Z" fill="white"/>
<path d="M36 11.2V6.40002H40V11.2H36Z" fill="white"/>
<path d="M36.0001 20C36.0001 18.8 34.8001 17.6 33.6001 17.6V13.6C36.8001 13.6 40.0001 16.4 40.0001 20H36.0001Z" fill="white"/>
<path d="M36.0001 6.4C36.0001 5.2 34.8001 4 33.6001 4V0C36.8001 0 40.0001 2.8 40.0001 6.4H36.0001Z" fill="white"/>
<path d="M33.6 13.6C34.8 13.6 36 12.4 36 11.2H40C40 14.4 37.2 17.6 33.6 17.6V13.6Z" fill="white"/>
</svg>
