<svg width="17" height="61" viewBox="0 0 17 61" fill="none" xmlns="http://www.w3.org/2000/svg">
<path d="M0.159999 45.3279H16V47.8479H5.212L3.184 47.7279L5.464 48.2079L14.992 51.6759V54.1599L5.464 57.6159L3.184 58.0959L5.212 57.9759H16V60.4959H0.159999L0.159999 57.0519L12.016 53.0919L12.964 52.9119L12.016 52.7439L0.159999 48.7599L0.159999 45.3279ZM0.159999 42.1197L0.159999 32.5197H2.416L2.416 39.6117H6.964L6.964 32.6397H9.16V39.6117H13.744V32.5197H16L16 42.1197H0.159999ZM2.524 27.0881L2.548 26.9201H16V29.4401H0.159999L0.159999 25.9241L13.6 18.2681L13.636 18.4241H0.159999L0.159999 15.9161H16L16 19.4441L2.524 27.0881ZM0.159999 3.15087L0.159999 0.630875H9.964C11.268 0.630875 12.396 0.890874 13.348 1.41087C14.292 1.92287 15.02 2.63887 15.532 3.55887C16.036 4.47887 16.288 5.55087 16.288 6.77487C16.288 7.99087 16.036 9.06287 15.532 9.99087C15.02 10.9189 14.292 11.6429 13.348 12.1629C12.396 12.6829 11.268 12.9429 9.964 12.9429H0.159999L0.159999 10.4229H9.832C10.696 10.4229 11.436 10.2669 12.052 9.95487C12.668 9.63487 13.14 9.20287 13.468 8.65887C13.796 8.10687 13.96 7.47887 13.96 6.77487C13.96 6.07087 13.796 5.44687 13.468 4.90287C13.14 4.35887 12.668 3.93087 12.052 3.61887C11.436 3.30687 10.696 3.15087 9.832 3.15087H0.159999Z" fill="black"/>
</svg>
