<svg width="25" height="24" viewBox="0 0 25 24" fill="none" xmlns="http://www.w3.org/2000/svg">
<path fill-rule="evenodd" clip-rule="evenodd" d="M15.0646 3.34352C15.5736 3.25644 16.1435 3.22736 16.6799 3.31801C17.6378 3.47989 18.5226 3.92462 19.222 4.59138C19.6792 4.60171 20.1286 4.51173 20.5261 4.38347C20.8626 4.27492 21.1468 4.14385 21.346 4.04021C21.445 3.98868 21.5215 3.94472 21.5713 3.91496C21.5961 3.90011 21.6142 3.88886 21.6249 3.88207L21.6344 3.87601C21.9315 3.67828 22.3272 3.71677 22.5804 3.96827C22.8336 4.21984 22.8744 4.61476 22.6779 4.91266C22.4699 5.22795 22.1813 5.79002 21.8579 6.41978C21.807 6.5188 21.7553 6.61949 21.7029 6.72116C21.5174 7.08113 21.3272 7.44494 21.1499 7.75707C21.0386 7.95306 20.9195 8.15204 20.7995 8.32398V8.59775C20.8071 9.60338 20.6917 10.6038 20.4573 11.577C20.3099 12.1893 20.1154 12.7909 19.8749 13.3763C19.2518 14.893 18.3324 16.2704 17.1703 17.4282C16.0083 18.5859 14.627 19.5008 13.1071 20.1193C11.5885 20.7373 9.96194 21.0471 8.32228 21.0306C5.94534 21.0327 3.6184 20.3486 1.62147 19.0607C1.32734 18.871 1.20351 18.5035 1.32297 18.1747C1.44244 17.846 1.7735 17.6434 2.12096 17.6863C2.42165 17.7235 2.7244 17.7416 3.02738 17.7407C4.11604 17.7376 5.18396 17.4973 6.1589 17.0447C5.84901 16.9038 5.55314 16.73 5.27668 16.5253C4.46407 15.9234 3.85949 15.0834 3.54708 14.1223C3.46589 13.8725 3.52139 13.5985 3.6934 13.3999C3.69648 13.3964 3.69959 13.3929 3.70273 13.3894C3.519 13.2257 3.34708 13.0475 3.18881 12.8559C2.4767 11.9937 2.08459 10.9123 2.0788 9.79453L2.07878 9.79065L2.07879 9.74065C2.07879 9.47478 2.2197 9.22879 2.44916 9.09407C2.50732 9.05992 2.56898 9.03421 2.6324 9.01697C2.29369 8.34189 2.11755 7.59644 2.11884 6.84018C2.11844 5.98342 2.34248 5.14145 2.76872 4.39795C2.89176 4.18331 3.11284 4.04307 3.35964 4.0231C3.60644 4.00312 3.84723 4.10598 4.00327 4.29802C4.96689 5.48403 6.16951 6.45429 7.533 7.14576C8.23391 7.50121 8.96928 7.77891 9.72591 7.97534C10.1501 8.08547 10.581 8.17006 11.0163 8.22849C10.9971 7.50523 11.1401 6.78236 11.4401 6.11443C11.8803 5.1346 12.6336 4.32843 13.5819 3.82233C13.9835 3.60801 14.5166 3.43729 15.0646 3.34352ZM3.77394 10.891C3.90373 11.2559 4.09681 11.5982 4.34715 11.9013C4.83901 12.4969 5.52172 12.9044 6.27977 13.0551C6.61743 13.1222 6.86614 13.41 6.88319 13.7535C6.90023 14.097 6.68124 14.408 6.35188 14.5082C6.07908 14.5911 5.79959 14.6489 5.51693 14.681C5.70371 14.9215 5.92344 15.1369 6.17112 15.3204C6.73292 15.7365 7.41062 15.9673 8.1099 15.9808C8.42717 15.9869 8.70635 16.1916 8.80728 16.4921C8.90822 16.7926 8.80913 17.124 8.55974 17.3201C7.50942 18.1456 6.29487 18.7213 5.0079 19.0151C6.07456 19.3564 7.19324 19.532 8.32479 19.5306L8.3335 19.5306C9.77515 19.5456 11.2053 19.2735 12.5405 18.7302C13.8757 18.1868 15.0891 17.3832 16.1099 16.3661C17.1306 15.3491 17.9383 14.1391 18.4857 12.8068C18.6969 12.2926 18.8678 11.7641 18.9973 11.2262C19.2034 10.3704 19.3048 9.49078 19.2979 8.60651L19.2978 8.60065V8.07065C19.2978 7.88879 19.364 7.71314 19.484 7.57636C19.5533 7.49732 19.6746 7.31476 19.8438 7.01686C20.0046 6.73374 20.1826 6.39383 20.3677 6.03465C20.3789 6.01293 20.3902 5.99109 20.4015 5.96915C19.9214 6.0733 19.3772 6.12789 18.8067 6.06631C18.6261 6.0468 18.4586 5.96252 18.3354 5.82908C17.832 5.28374 17.1616 4.92073 16.4294 4.79699C16.1045 4.74209 15.7117 4.75465 15.3181 4.82199C14.8906 4.89515 14.5184 5.02317 14.2895 5.14534C13.6345 5.49491 13.1142 6.05175 12.8102 6.72854C12.5061 7.40533 12.4356 8.16377 12.6096 8.88493C12.665 9.11484 12.6087 9.35742 12.4576 9.53945C12.3064 9.72148 12.0782 9.82164 11.8417 9.80969C10.9974 9.76703 10.162 9.63838 9.34818 9.42711C8.48732 9.20362 7.65067 8.88767 6.85321 8.48326C5.67913 7.88785 4.6099 7.11075 3.68403 6.18306C3.6418 6.39868 3.62035 6.6187 3.6205 6.84015L3.6205 6.84207C3.61945 7.39279 3.75475 7.93522 4.01435 8.42107C4.27394 8.90692 4.64978 9.32111 5.1084 9.62676C5.38673 9.81226 5.5086 10.1593 5.40723 10.4779C5.30586 10.7964 5.00573 11.0095 4.67126 11.0004C4.36833 10.9921 4.06794 10.9553 3.77394 10.891Z" fill="black"/>
</svg>
